<svg id="icon_holding_图形" data-name="icon/holding 图形" xmlns="http://www.w3.org/2000/svg" width="41.144" height="29.257" viewBox="0 0 41.144 29.257">
  <path id="联合_1" data-name="联合 1" d="M-1391.514,362.972l3.658-2.286v4.571Zm-37.486.091,3.886-2.194V347.7l-3.886-2.193,13.6-7.681,1.943,1.1v19.749l-11.657,6.583Zm7.771-17.555v13.166l3.886-2.194V343.314Zm9.6,16.816V342.438l9.143-5.524,1.828,1.105V357.9l-9.142,5.524Zm3.657-17.676V357.9l3.658-2.21V342.438Zm9.143,16.762V341.524l9.143-5.524,1.829,1.105V356.99l-9.143,5.524Zm3.658-17.676V356.99l3.658-2.21V341.524Z" transform="translate(1429 -336)" fill="#e03323"/>
</svg>
