<svg id="icon_holding_Logo" data-name="icon/holding Logo" xmlns="http://www.w3.org/2000/svg" width="148.242" height="30" viewBox="0 0 148.242 30">
  <g id="组_78" data-name="组 78" transform="translate(44.977 22.759)">
    <path id="路径_132" data-name="路径 132" d="M597.609,353.62a1.186,1.186,0,0,1,.291.8,1.231,1.231,0,0,1-.42.974,1.8,1.8,0,0,1-1.216.367h-1.879v-4.976h1.851a1.754,1.754,0,0,1,1.155.332,1.262,1.262,0,0,1,.133,1.687,1.191,1.191,0,0,1-.671.381A1.329,1.329,0,0,1,597.609,353.62Zm-2.572-.656h1.09a1.1,1.1,0,0,0,.736-.219.766.766,0,0,0,.254-.614.754.754,0,0,0-.251-.6,1.145,1.145,0,0,0-.768-.219h-1.062Zm1.9,2.025a.889.889,0,0,0-.007-1.309,1.244,1.244,0,0,0-.807-.236h-1.09v1.778h1.1A1.227,1.227,0,0,0,596.941,354.989Z" transform="translate(-594.384 -350.352)" fill="#9e9e9f"/>
    <path id="路径_133" data-name="路径 133" d="M644.468,363.1v3.875h-.653v-.91a1.3,1.3,0,0,1-.535.723,1.6,1.6,0,0,1-.893.251,1.474,1.474,0,0,1-1.105-.434,1.711,1.711,0,0,1-.423-1.246V363.1h.653V365.3a1.238,1.238,0,0,0,.3.893,1.08,1.08,0,0,0,.818.314,1.127,1.127,0,0,0,.861-.342,1.4,1.4,0,0,0,.323-1V363.1Z" transform="translate(-636.705 -361.569)" fill="#9e9e9f"/>
    <path id="路径_134" data-name="路径 134" d="M690.988,346.074a.531.531,0,0,1,.646,0,.4.4,0,0,1,0,.572.532.532,0,0,1-.646,0,.4.4,0,0,1,0-.572Zm.646,1.422v3.875h-.653V347.5Z" transform="translate(-682.243 -345.965)" fill="#9e9e9f"/>
    <path id="路径_135" data-name="路径 135" d="M711.029,348.018v5.223h-.653v-5.223Z" transform="translate(-700.009 -347.835)" fill="#9e9e9f"/>
    <path id="路径_136" data-name="路径 136" d="M729.21,349.6a1.473,1.473,0,0,1,.556.755v-2.336h.653v5.223h-.653v-.988a1.472,1.472,0,0,1-.556.755,1.637,1.637,0,0,1-.972.282,1.806,1.806,0,0,1-.932-.24,1.668,1.668,0,0,1-.642-.688,2.511,2.511,0,0,1,0-2.114,1.664,1.664,0,0,1,.642-.692,1.808,1.808,0,0,1,.932-.24A1.638,1.638,0,0,1,729.21,349.6Zm-1.751.667a1.677,1.677,0,0,0,0,2.082,1.275,1.275,0,0,0,.965.378,1.356,1.356,0,0,0,.692-.176,1.236,1.236,0,0,0,.477-.5,1.551,1.551,0,0,0,.172-.744,1.573,1.573,0,0,0-.172-.748,1.21,1.21,0,0,0-.477-.5,1.379,1.379,0,0,0-.692-.173A1.275,1.275,0,0,0,727.459,350.266Z" transform="translate(-714.628 -347.835)" fill="#9e9e9f"/>
    <path id="路径_137" data-name="路径 137" d="M796.515,363.1l1.277,3.049,1.184-3.049h.725l-2.339,5.71h-.739l.818-1.9-1.657-3.811Z" transform="translate(-777.783 -361.569)" fill="#9e9e9f"/>
    <path id="路径_138" data-name="路径 138" d="M846.3,362.789a1.732,1.732,0,0,1,.7.692,2.32,2.32,0,0,1,0,2.114,1.737,1.737,0,0,1-.7.688,2.268,2.268,0,0,1-2.03,0,1.76,1.76,0,0,1-.706-.688,2.29,2.29,0,0,1,0-2.114,1.755,1.755,0,0,1,.706-.692,2.268,2.268,0,0,1,2.03,0Zm-1.664.48a1.177,1.177,0,0,0-.481.476,1.584,1.584,0,0,0-.183.794,1.567,1.567,0,0,0,.183.787,1.176,1.176,0,0,0,.481.476,1.436,1.436,0,0,0,1.3,0,1.177,1.177,0,0,0,.481-.476,1.565,1.565,0,0,0,.183-.787,1.581,1.581,0,0,0-.183-.794,1.178,1.178,0,0,0-.481-.476,1.435,1.435,0,0,0-1.3,0Z" transform="translate(-821.055 -361.067)" fill="#9e9e9f"/>
    <path id="路径_139" data-name="路径 139" d="M898.686,363.1v3.875h-.653v-.91a1.3,1.3,0,0,1-.535.723,1.6,1.6,0,0,1-.893.251,1.474,1.474,0,0,1-1.105-.434,1.711,1.711,0,0,1-.423-1.246V363.1h.653V365.3a1.237,1.237,0,0,0,.3.893,1.08,1.08,0,0,0,.818.314,1.128,1.128,0,0,0,.861-.342,1.4,1.4,0,0,0,.323-1V363.1Z" transform="translate(-868.202 -361.569)" fill="#9e9e9f"/>
    <path id="路径_140" data-name="路径 140" d="M947.59,362.613a1.706,1.706,0,0,1,.89-.222v.7h-.2a1.411,1.411,0,0,0-.9.279,1.108,1.108,0,0,0-.352.921v2.04h-.653v-3.875h.653v.783A1.432,1.432,0,0,1,947.59,362.613Z" transform="translate(-914.912 -360.923)" fill="#9e9e9f"/>
    <path id="路径_141" data-name="路径 141" d="M998.279,350.783v.522h-2.21v1.722h1.873v.5H996.07v2.23h-.653v-4.976Z" transform="translate(-959.574 -350.352)" fill="#9e9e9f"/>
    <path id="路径_142" data-name="路径 142" d="M1034.146,346.074a.531.531,0,0,1,.646,0,.4.4,0,0,1,0,.572.531.531,0,0,1-.646,0,.4.4,0,0,1,0-.572Zm.646,1.422v3.875h-.653V347.5Z" transform="translate(-994.731 -345.965)" fill="#9e9e9f"/>
    <path id="路径_143" data-name="路径 143" d="M1056.718,362.825a1.722,1.722,0,0,1,.423,1.253v2.251h-.653v-2.195a1.225,1.225,0,0,0-.3-.889,1.087,1.087,0,0,0-.818-.311,1.128,1.128,0,0,0-.861.342,1.4,1.4,0,0,0-.323,1v2.054h-.653v-3.875h.653v.917a1.32,1.32,0,0,1,.534-.727,1.568,1.568,0,0,1,.886-.254A1.483,1.483,0,0,1,1056.718,362.825Z" transform="translate(-1012.496 -360.923)" fill="#9e9e9f"/>
    <path id="路径_144" data-name="路径 144" d="M1104.956,362.831a1.473,1.473,0,0,1,.556.755V362.6h.653v3.875h-.653v-.988a1.472,1.472,0,0,1-.556.755,1.637,1.637,0,0,1-.972.282,1.807,1.807,0,0,1-.932-.24,1.668,1.668,0,0,1-.642-.688,2.512,2.512,0,0,1,0-2.114,1.664,1.664,0,0,1,.642-.692,1.809,1.809,0,0,1,.932-.24A1.638,1.638,0,0,1,1104.956,362.831Zm-1.751.667a1.677,1.677,0,0,0,0,2.082,1.275,1.275,0,0,0,.965.378,1.357,1.357,0,0,0,.692-.176,1.236,1.236,0,0,0,.477-.5,1.552,1.552,0,0,0,.172-.744,1.574,1.574,0,0,0-.172-.748,1.21,1.21,0,0,0-.477-.5,1.379,1.379,0,0,0-.692-.173A1.275,1.275,0,0,0,1103.205,363.5Z" transform="translate(-1056.792 -361.067)" fill="#9e9e9f"/>
    <path id="路径_145" data-name="路径 145" d="M1160.829,362.825a1.722,1.722,0,0,1,.423,1.253v2.251h-.653v-2.195a1.226,1.226,0,0,0-.3-.889,1.087,1.087,0,0,0-.818-.311,1.128,1.128,0,0,0-.861.342,1.4,1.4,0,0,0-.323,1v2.054h-.653v-3.875h.653v.917a1.321,1.321,0,0,1,.534-.727,1.568,1.568,0,0,1,.886-.254A1.483,1.483,0,0,1,1160.829,362.825Z" transform="translate(-1107.302 -360.923)" fill="#9e9e9f"/>
    <path id="路径_146" data-name="路径 146" d="M1209.474,362.944a1.668,1.668,0,0,1,.61,1.059h-.688a.989.989,0,0,0-.391-.653,1.4,1.4,0,0,0-1.421-.081,1.137,1.137,0,0,0-.456.476,1.918,1.918,0,0,0,0,1.588,1.136,1.136,0,0,0,.456.476,1.393,1.393,0,0,0,1.421-.085,1,1,0,0,0,.391-.656h.688a1.658,1.658,0,0,1-.61,1.062,1.949,1.949,0,0,1-1.248.392,2.053,2.053,0,0,1-1-.24,1.708,1.708,0,0,1-.685-.688,2.38,2.38,0,0,1,0-2.114,1.7,1.7,0,0,1,.685-.692,2.055,2.055,0,0,1,1-.24A1.938,1.938,0,0,1,1209.474,362.944Z" transform="translate(-1151.599 -361.067)" fill="#9e9e9f"/>
    <path id="路径_147" data-name="路径 147" d="M1256.338,346.074a.531.531,0,0,1,.646,0,.4.4,0,0,1,0,.572.532.532,0,0,1-.646,0,.4.4,0,0,1,0-.572Zm.646,1.422v3.875h-.653V347.5Z" transform="translate(-1197.064 -345.965)" fill="#9e9e9f"/>
    <path id="路径_148" data-name="路径 148" d="M1276.334,362.831a1.473,1.473,0,0,1,.556.755V362.6h.653v3.875h-.653v-.988a1.472,1.472,0,0,1-.556.755,1.637,1.637,0,0,1-.972.282,1.807,1.807,0,0,1-.932-.24,1.668,1.668,0,0,1-.642-.688,2.512,2.512,0,0,1,0-2.114,1.664,1.664,0,0,1,.642-.692,1.809,1.809,0,0,1,.932-.24A1.638,1.638,0,0,1,1276.334,362.831Zm-1.751.667a1.677,1.677,0,0,0,0,2.082,1.275,1.275,0,0,0,.965.378,1.356,1.356,0,0,0,.692-.176,1.236,1.236,0,0,0,.477-.5,1.552,1.552,0,0,0,.172-.744,1.574,1.574,0,0,0-.172-.748,1.209,1.209,0,0,0-.477-.5,1.379,1.379,0,0,0-.692-.173A1.275,1.275,0,0,0,1274.583,363.5Z" transform="translate(-1212.853 -361.067)" fill="#9e9e9f"/>
    <path id="路径_149" data-name="路径 149" d="M1329.676,348.018v5.223h-.653v-5.223Z" transform="translate(-1263.364 -347.835)" fill="#9e9e9f"/>
    <path id="路径_150" data-name="路径 150" d="M1366.921,351.305v1.7h1.923v.494h-1.923v1.736h2.138v.522h-2.791v-4.976h2.791v.522Z" transform="translate(-1297.28 -350.352)" fill="#9e9e9f"/>
    <path id="路径_151" data-name="路径 151" d="M1409.27,362.825a1.722,1.722,0,0,1,.423,1.253v2.251h-.653v-2.195a1.226,1.226,0,0,0-.3-.889,1.087,1.087,0,0,0-.818-.311,1.127,1.127,0,0,0-.861.342,1.4,1.4,0,0,0-.323,1v2.054h-.653v-3.875h.653v.917a1.322,1.322,0,0,1,.534-.727,1.568,1.568,0,0,1,.886-.254A1.483,1.483,0,0,1,1409.27,362.825Z" transform="translate(-1333.538 -360.923)" fill="#9e9e9f"/>
    <path id="路径_152" data-name="路径 152" d="M1454.753,356.559v.565h-.488a1.046,1.046,0,0,1-1.2-1.228v-2.089h-.588v-.558h.588v-.967h.66v.967h1.019v.558h-1.019v2.1a.716.716,0,0,0,.14.512.681.681,0,0,0,.484.138Z" transform="translate(-1375.786 -351.717)" fill="#9e9e9f"/>
    <path id="路径_153" data-name="路径 153" d="M1487.654,364.673h-3.15a1.347,1.347,0,0,0,.384,1,1.264,1.264,0,0,0,.886.332,1.3,1.3,0,0,0,.793-.236.975.975,0,0,0,.391-.632h.7a1.615,1.615,0,0,1-.319.72,1.656,1.656,0,0,1-.642.494,2.157,2.157,0,0,1-.89.176,2.053,2.053,0,0,1-1-.24,1.708,1.708,0,0,1-.685-.688,2.38,2.38,0,0,1,0-2.114,1.7,1.7,0,0,1,.685-.692,2.055,2.055,0,0,1,1-.24,2.01,2.01,0,0,1,1,.24,1.668,1.668,0,0,1,.653.642,1.787,1.787,0,0,1,.226.889A1.9,1.9,0,0,1,1487.654,364.673Zm-.775-1.03a1.042,1.042,0,0,0-.452-.43,1.394,1.394,0,0,0-.624-.141,1.237,1.237,0,0,0-1.3,1.292h2.518A1.3,1.3,0,0,0,1486.879,363.643Z" transform="translate(-1404.368 -361.067)" fill="#9e9e9f"/>
    <path id="路径_154" data-name="路径 154" d="M1536.541,362.613a1.706,1.706,0,0,1,.89-.222v.7h-.2a1.412,1.412,0,0,0-.9.279,1.108,1.108,0,0,0-.351.921v2.04h-.653v-3.875h.653v.783A1.432,1.432,0,0,1,1536.541,362.613Z" transform="translate(-1451.224 -360.923)" fill="#9e9e9f"/>
    <path id="路径_155" data-name="路径 155" d="M1568.447,362.789a1.666,1.666,0,0,1,.642.692,2.511,2.511,0,0,1,0,2.114,1.669,1.669,0,0,1-.642.688,1.807,1.807,0,0,1-.933.24,1.623,1.623,0,0,1-.972-.286,1.453,1.453,0,0,1-.549-.752v2.823h-.653V362.6h.653v.988a1.453,1.453,0,0,1,.549-.752,1.623,1.623,0,0,1,.972-.286A1.809,1.809,0,0,1,1568.447,362.789Zm-1.808.5a1.2,1.2,0,0,0-.481.5,1.574,1.574,0,0,0-.172.748,1.552,1.552,0,0,0,.172.744,1.228,1.228,0,0,0,.481.5,1.361,1.361,0,0,0,.688.176,1.285,1.285,0,0,0,.972-.378,1.677,1.677,0,0,0,0-2.082,1.285,1.285,0,0,0-.972-.378A1.384,1.384,0,0,0,1566.64,363.294Z" transform="translate(-1478.561 -361.067)" fill="#9e9e9f"/>
    <path id="路径_156" data-name="路径 156" d="M1619.86,362.613a1.707,1.707,0,0,1,.89-.222v.7h-.2a1.411,1.411,0,0,0-.9.279,1.107,1.107,0,0,0-.352.921v2.04h-.653v-3.875h.653v.783A1.433,1.433,0,0,1,1619.86,362.613Z" transform="translate(-1527.097 -360.923)" fill="#9e9e9f"/>
    <path id="路径_157" data-name="路径 157" d="M1647.5,346.074a.531.531,0,0,1,.646,0,.4.4,0,0,1,0,.572.532.532,0,0,1-.646,0,.4.4,0,0,1,0-.572Zm.646,1.422v3.875h-.653V347.5Z" transform="translate(-1553.262 -345.965)" fill="#9e9e9f"/>
    <path id="路径_158" data-name="路径 158" d="M1667.507,362.891a1.435,1.435,0,0,1,.491.921h-.624a.883.883,0,0,0-.29-.568.956.956,0,0,0-.664-.222.828.828,0,0,0-.549.166.555.555,0,0,0-.2.448.458.458,0,0,0,.133.342.852.852,0,0,0,.33.2,5.566,5.566,0,0,0,.542.145,5.41,5.41,0,0,1,.707.2,1.11,1.11,0,0,1,.459.328.913.913,0,0,1,.19.607.948.948,0,0,1-.362.769,1.478,1.478,0,0,1-.965.3,1.87,1.87,0,0,1-1.148-.332,1.318,1.318,0,0,1-.524-.925h.631a.8.8,0,0,0,.312.572,1.138,1.138,0,0,0,.728.219.765.765,0,0,0,.527-.169.567.567,0,0,0,.19-.445.483.483,0,0,0-.136-.36.9.9,0,0,0-.337-.2,5.019,5.019,0,0,0-.552-.148,5.47,5.47,0,0,1-.7-.2,1.07,1.07,0,0,1-.445-.314.869.869,0,0,1-.183-.582.968.968,0,0,1,.366-.787,1.526,1.526,0,0,1,1-.3A1.606,1.606,0,0,1,1667.507,362.891Z" transform="translate(-1569.345 -361.067)" fill="#9e9e9f"/>
    <path id="路径_159" data-name="路径 159" d="M1709.2,364.673h-3.15a1.347,1.347,0,0,0,.384,1,1.264,1.264,0,0,0,.886.332,1.3,1.3,0,0,0,.793-.236.975.975,0,0,0,.391-.632h.7a1.618,1.618,0,0,1-.319.72,1.655,1.655,0,0,1-.642.494,2.157,2.157,0,0,1-.89.176,2.052,2.052,0,0,1-1-.24,1.708,1.708,0,0,1-.685-.688,2.38,2.38,0,0,1,0-2.114,1.7,1.7,0,0,1,.685-.692,2.055,2.055,0,0,1,1-.24,2.01,2.01,0,0,1,1,.24,1.667,1.667,0,0,1,.653.642,1.786,1.786,0,0,1,.226.889A1.912,1.912,0,0,1,1709.2,364.673Zm-.775-1.03a1.042,1.042,0,0,0-.452-.43,1.4,1.4,0,0,0-.624-.141,1.237,1.237,0,0,0-1.3,1.292h2.518A1.3,1.3,0,0,0,1708.426,363.643Z" transform="translate(-1606.114 -361.067)" fill="#9e9e9f"/>
  </g>
  <g id="组_79" data-name="组 79" transform="translate(44.047 6.816)">
    <path id="路径_160" data-name="路径 160" d="M1142.819,178.1a5.828,5.828,0,0,0-5.538,0,5.193,5.193,0,0,0-1.974,1.941,5.8,5.8,0,0,0,0,5.621,5.172,5.172,0,0,0,1.974,1.949,5.8,5.8,0,0,0,5.523,0,5.178,5.178,0,0,0,1.973-1.949,5.826,5.826,0,0,0,.008-5.621A5.142,5.142,0,0,0,1142.819,178.1Zm-.742,6.975a2.924,2.924,0,0,1-4.077,0,3.665,3.665,0,0,1,0-4.462,2.943,2.943,0,0,1,4.085.008,3.639,3.639,0,0,1-.008,4.454Z" transform="translate(-1085.37 -176.523)" fill="#3e3a39"/>
    <path id="路径_161" data-name="路径 161" d="M1522.9,185.842l-4.375-6.592h-2.616v10.641h2.616v-6.532l4.375,6.532h2.616V179.25H1522.9Z" transform="translate(-1432.618 -178.207)" fill="#3e3a39"/>
    <path id="路径_162" data-name="路径 162" d="M1637.208,182.842v1.851h3.3a2.687,2.687,0,0,1-.994,1.437,2.738,2.738,0,0,1-1.637.5,2.979,2.979,0,0,1-2.241-.813,3.216,3.216,0,0,1-.788-2.333,3.164,3.164,0,0,1,.75-2.22,2.564,2.564,0,0,1,1.989-.82,2.6,2.6,0,0,1,1.361.339,2.118,2.118,0,0,1,.842.911h2.769a4.158,4.158,0,0,0-1.637-2.649,5.47,5.47,0,0,0-3.351-.978,5.694,5.694,0,0,0-2.838.685,4.742,4.742,0,0,0-1.882,1.919,6.282,6.282,0,0,0,0,5.629,4.724,4.724,0,0,0,1.889,1.919,5.762,5.762,0,0,0,2.861.685,5.525,5.525,0,0,0,2.394-.5,5.042,5.042,0,0,0,1.721-1.294,5.165,5.165,0,0,0,.979-1.731v-2.543Z" transform="translate(-1538.505 -177.134)" fill="#3e3a39"/>
    <path id="路径_163" data-name="路径 163" d="M1469.084,189.752h2.616V179.1l-2.616,1.51Z" transform="translate(-1389.977 -178.068)" fill="#3e3a39"/>
    <path id="路径_164" data-name="路径 164" d="M1268.2,176.053l-2.616,1.51v9.416h6.1v-1.971H1268.2Z" transform="translate(-1204.661 -175.296)" fill="#3e3a39"/>
    <path id="路径_165" data-name="路径 165" d="M1349.758,179.912a6.445,6.445,0,0,0-3.014-.662h-1.076l-3.009,1.737v8.9h4.085a6.334,6.334,0,0,0,3.006-.677,4.738,4.738,0,0,0,1.958-1.889,5.988,5.988,0,0,0,0-5.546A4.67,4.67,0,0,0,1349.758,179.912Zm-.864,6.878a3.341,3.341,0,0,1-2.379.8h-1.24v-6.08h1.24a3.341,3.341,0,0,1,2.379.8,3.386,3.386,0,0,1,0,4.485Z" transform="translate(-1274.851 -178.207)" fill="#3e3a39"/>
    <path id="路径_166" data-name="路径 166" d="M715.644,178.1a5.828,5.828,0,0,0-5.538,0,5.2,5.2,0,0,0-1.974,1.941,5.8,5.8,0,0,0,0,5.621,5.173,5.173,0,0,0,1.974,1.949,5.8,5.8,0,0,0,5.523,0,5.177,5.177,0,0,0,1.973-1.949,5.827,5.827,0,0,0,.008-5.621A5.143,5.143,0,0,0,715.644,178.1Zm-.742,6.975a2.924,2.924,0,0,1-4.077,0,3.665,3.665,0,0,1,0-4.462,2.943,2.943,0,0,1,4.085.008,3.639,3.639,0,0,1-.008,4.454Z" transform="translate(-696.374 -176.523)" fill="#3e3a39"/>
    <path id="路径_167" data-name="路径 167" d="M846.644,178.1a5.828,5.828,0,0,0-5.538,0,5.194,5.194,0,0,0-1.974,1.941,5.8,5.8,0,0,0,0,5.621,5.173,5.173,0,0,0,1.974,1.949,5.8,5.8,0,0,0,5.523,0,5.176,5.176,0,0,0,1.973-1.949,5.827,5.827,0,0,0,.008-5.621A5.144,5.144,0,0,0,846.644,178.1Zm-.742,6.975a2.924,2.924,0,0,1-4.077,0,3.665,3.665,0,0,1,0-4.462,2.943,2.943,0,0,1,4.085.008,3.64,3.64,0,0,1-.008,4.454Z" transform="translate(-815.666 -176.523)" fill="#3e3a39"/>
    <path id="路径_168" data-name="路径 168" d="M1028.728,172.423v3.9h-4.039v-5.411l-2.616,1.51V182.3h2.616v-4.124h4.039V182.3h2.616V170.913Z" transform="translate(-982.918 -170.615)" fill="#3e3a39"/>
    <path id="路径_169" data-name="路径 169" d="M598.807,181.778a4.667,4.667,0,0,0-1.951-1.867,6.445,6.445,0,0,0-3.014-.662h-.991v2.258h.761a3.341,3.341,0,0,1,2.379.8,3.386,3.386,0,0,1,0,4.485,3.341,3.341,0,0,1-2.379.8h-1.24V182.56l-2.616-1.51v8.839h4.085a6.333,6.333,0,0,0,3.006-.677,4.735,4.735,0,0,0,1.958-1.889,5.987,5.987,0,0,0,0-5.546Z" transform="translate(-589.242 -178.206)" fill="#3e3a39"/>
    <path id="路径_170" data-name="路径 170" d="M586.963,167.583v3.446l-2.984-1.723Z" transform="translate(-583.979 -167.583)" fill="#e03323"/>
  </g>
  <g id="组_80" data-name="组 80">
    <path id="路径_171" data-name="路径 171" d="M493.082,355.8v4.111l-3.56-2.055Z" transform="translate(-453.917 -332.163)" fill="#e03323"/>
    <path id="路径_172" data-name="路径 172" d="M103.613,114.32l-12.461,7.194,3.56,2.055V135.9l-3.56,2.055,3.56,2.056,10.681-6.166v-18.5Zm-1.78,17.472-3.56,2.055V121.514l3.56-2.055Z" transform="translate(-91.152 -112.265)" fill="#e03323"/>
    <path id="路径_173" data-name="路径 173" d="M279.306,102.821l-8.9,5.139v18.5l1.78,1.028,8.9-5.139v-18.5Zm-1.78,17.472-3.56,2.055V110.015l3.56-2.055Z" transform="translate(-254.384 -101.793)" fill="#e03323"/>
    <path id="路径_174" data-name="路径 174" d="M418.753,91.322l-8.9,5.139v18.5l1.78,1.028,8.9-5.139V92.35Zm-1.78,17.472-3.56,2.055V98.516l3.561-2.056Z" transform="translate(-381.369 -91.322)" fill="#e03323"/>
  </g>
</svg>
